<?xml version="1.0" encoding="UTF-8" standalone="no"?>
<!DOCTYPE svg PUBLIC "-//W3C//DTD SVG 1.1//EN" "http://www.w3.org/Graphics/SVG/1.1/DTD/svg11.dtd">
<svg width="100%" height="100%" viewBox="0 0 640 640" version="1.1" xmlns="http://www.w3.org/2000/svg" xmlns:xlink="http://www.w3.org/1999/xlink" xml:space="preserve" xmlns:serif="http://www.serif.com/" style="fill-rule:evenodd;clip-rule:evenodd;stroke-linejoin:round;stroke-miterlimit:2;">
    <g id="g866" transform="matrix(1.0478,0,0,1.0478,-15.2969,-15.2969)">
        <g id="AvhcF3OvwC5frrcJhWN5R" transform="matrix(3.6869,0,0,7.05255,244.761,363.222)">
            <path id="path21" d="M-30.895,-5.219C-29.618,-15.783 -30.115,-24.002 -30.537,-28.037C-30.696,-29.554 -29.658,-30.807 -28.133,-30.853C-22.6,-31.021 -9.513,-31.489 4.131,-32.478C17.556,-33.451 31.52,-34.93 37.75,-35.618C39.599,-35.822 41.238,-34.493 41.364,-32.636C41.749,-26.936 42.292,-14.706 41.096,-1.62C39.915,11.311 35.495,25.077 33.1,31.804C32.271,34.132 29.532,35.904 27.064,35.782C19.633,35.413 4.249,34.591 -8.964,33.513C-22.405,32.416 -33.925,31.053 -39.024,30.416C-40.573,30.222 -41.31,28.9 -40.703,27.461C-38.212,21.55 -32.332,6.678 -30.895,-5.219L-30.895,-5.219Z" style="fill:rgb(233,84,32);fill-rule:nonzero;"/>
        </g>
        <g id="aiMSrT1FUmwbhyzP2Cv13" transform="matrix(1.64776,-0.535687,0.659103,1.62434,274.95,91.6037)">
            <path id="path45" d="M-81.612,-0.068C-81.612,-1.135 -80.652,-2 -79.467,-2L79.467,-2C80.652,-2 81.612,-1.135 81.612,-0.068L81.612,0.068C81.612,1.135 80.652,2 79.467,2L-79.467,2C-80.652,2 -81.612,1.135 -81.612,0.068L-81.612,-0.068Z" style="fill:rgb(233,84,32);fill-rule:nonzero;"/>
        </g>
        <g id="hTD8JXSBhLV4ak72_k9nr" transform="matrix(1.14925,0.74571,-0.549643,1.49142,482.597,92.8106)">
            <path id="path48" d="M-58.956,-0.076C-58.956,-1.139 -58.111,-2 -57.068,-2L57.068,-2C58.111,-2 58.956,-1.139 58.956,-0.076L58.956,0.076C58.956,1.139 58.111,2 57.068,2L-57.068,2C-58.111,2 -58.956,1.139 -58.956,0.076L-58.956,-0.076Z" style="fill:rgb(233,84,32);fill-rule:nonzero;"/>
        </g>
        <g id="NCDpIfqJ3E2nyzD1doe8y" transform="matrix(-0.667506,2.95196,-1.65519,-0.414396,409.181,77.1467)">
            <path id="path51" d="M-9.06,-0.013C-9.06,-1.11 -8.496,-2 -7.8,-2L7.8,-2C8.496,-2 9.06,-1.11 9.06,-0.013L9.06,0.013C9.06,1.11 8.496,2 7.8,2L-7.8,2C-8.496,2 -9.06,1.11 -9.06,0.013L-9.06,-0.013Z" style="fill:rgb(233,84,32);fill-rule:nonzero;"/>
        </g>
        <g id="vwZA0beqfYYXqeeBplnSD" transform="matrix(1.68051,-0.152774,0.356473,4.1249,480.292,41.0961)">
            <path id="path54" d="M-87.118,-2.887C-87.066,-3.319 -86.572,-3.723 -85.757,-4C-84.941,-4.276 -83.878,-4.401 -82.826,-4.344C-57.239,-2.949 -43.753,-1.757 -5.031,-0.989C33.66,-0.221 46.614,-0.87 72.024,-1.268C73.085,-1.285 74.113,-1.119 74.859,-0.812C75.606,-0.504 76.001,-0.083 75.949,0.349L75.865,1.048C75.759,1.934 73.998,2.638 71.821,2.664C46.096,2.972 32.681,3.163 -6.166,2.392C-45.006,1.622 -58.128,0.908 -83.563,-0.417C-85.723,-0.529 -87.307,-1.3 -87.201,-2.186L-87.118,-2.887Z" style="fill:rgb(233,84,32);fill-rule:nonzero;"/>
        </g>
        <g id="g295" transform="matrix(0.3017,0,0,0.3017,132.318,355.462)">
            <g id="g956">
                <g id="g950">
                    <circle id="circle6" cx="109.027" cy="348.094" r="109.027" style="fill:white;"/>
                    <circle id="circle8" cx="563.084" cy="109.027" r="109.027" style="fill:white;"/>
                    <circle id="circle12" cx="538.52" cy="629.287" r="109.027" style="fill:white;"/>
                </g>
            </g>
            <g id="g961">
                <g id="path10" transform="matrix(1,0,0,1,-137.562,-707.98)">
                    <path d="M492.482,1336.67C414.496,1320.18 347.94,1269.41 311.411,1198.57C282.24,1211.81 249.702,1215.81 218.192,1210.03C262.412,1319.37 358.342,1399.76 473.729,1424.19C499.171,1429.64 525.13,1432.31 551.148,1432.16C531.136,1405.92 519.956,1373.99 519.226,1341C510.246,1340.01 501.277,1338.55 492.482,1336.67Z" style="fill:white;fill-rule:nonzero;"/>
                </g>
                <g id="path14" transform="matrix(1,0,0,1,-137.562,-707.98)">
                    <path d="M827.798,1297.22C923.42,1176.59 930.661,1007.05 845.673,878.702C833.081,908.351 811.673,933.424 784.363,950.505C828.689,1034.19 825.357,1135.41 775.626,1215.99C801.146,1236.88 819.413,1265.33 827.798,1297.22Z" style="fill:white;fill-rule:nonzero;"/>
                </g>
                <g id="path16" transform="matrix(1,0,0,1,-137.562,-707.98)">
                    <path d="M238.176,899.719C240.943,899.567 243.712,899.492 246.482,899.494C275.691,899.515 304.326,907.669 329.164,923.039C377.883,852.669 457.696,809.983 543.272,808.53C545.035,776.38 556.577,745.523 576.348,720.109C439.245,709.252 306.024,780.001 238.176,899.719Z" style="fill:white;fill-rule:nonzero;"/>
                </g>
            </g>
            <g transform="matrix(0.478213,0.298539,-0.298821,0.477762,391.972,-19.0035)">
                <g id="g1520">
                    <path d="M679.149,561.275C679.149,566.185 678.908,571.092 678.393,576.324L678.345,576.668C678.25,577.354 678.151,578.04 678.051,578.675C668.928,726.417 545.014,843.251 396.867,843.564L396.832,843.564C248.774,843.287 124.902,726.581 115.605,578.991C115.54,578.441 115.477,577.89 115.418,577.339C115.403,577.202 115.389,577.065 115.374,576.928L115.373,576.918C115.119,574.495 114.925,572.066 114.79,569.63C114.782,569.495 114.774,569.36 114.767,569.225C114.625,566.556 114.552,563.873 114.552,561.171L114.553,561.098C114.575,558.486 114.664,555.875 114.822,553.268L114.768,553.265C114.904,550.696 115.106,548.13 115.417,545.151L115.481,544.734L115.559,544.247C124.482,396.32 248.51,279.233 396.837,278.955L396.872,278.955C544.421,279.271 668.032,395.211 677.943,542.294C678.311,545.183 678.596,548.083 678.796,550.989L678.799,551.036C679.032,554.444 679.149,557.859 679.149,561.275ZM152.517,585.088L152.525,585.129C153.355,589.026 154.388,592.877 155.62,596.666C156.855,600.469 158.29,604.205 159.917,607.86C161.543,611.512 163.359,615.078 165.358,618.541C167.357,622.003 169.536,625.358 171.886,628.592C174.237,631.828 176.755,634.938 179.431,637.91C182.107,640.881 184.936,643.711 187.908,646.386C190.879,649.062 193.989,651.58 197.223,653.93C200.458,656.28 203.815,658.459 207.28,660.459C210.742,662.459 214.307,664.276 217.96,665.903C221.613,667.529 225.349,668.962 229.153,670.198C232.957,671.434 236.823,672.47 240.736,673.302C244.648,674.133 248.6,674.759 252.578,675.177C256.556,675.595 260.552,675.805 264.552,675.805C268.552,675.805 272.549,675.595 276.527,675.177C280.505,674.759 284.459,674.133 288.371,673.301C292.284,672.47 296.151,671.433 299.956,670.197C303.76,668.961 307.497,667.527 311.15,665.901C314.805,664.274 318.372,662.456 321.836,660.455C325.3,658.455 328.657,656.275 331.894,653.923C335.13,651.572 338.242,649.053 341.215,646.377C344.187,643.701 347.018,640.87 349.694,637.898C352.37,634.925 354.889,631.814 357.24,628.577C359.591,625.341 361.772,621.984 363.772,618.52C365.772,615.056 367.589,611.49 369.217,607.835C370.843,604.181 372.278,600.445 373.514,596.641C374.749,592.838 375.784,588.972 376.616,585.061C377.447,581.149 378.073,577.196 378.491,573.218C378.909,569.241 379.118,565.244 379.119,561.244C379.119,561.049 379.119,560.853 379.12,560.657L379.12,560.537C379.121,560.339 379.122,560.141 379.124,559.943L379.112,559.943L379.11,559.766L379.125,559.765L379.128,559.513L379.106,559.514L379.1,559.221L379.132,559.221C379.137,558.857 379.143,558.493 379.15,558.129L379.077,558.13L379.073,558.009L379.153,558.007L379.158,557.768L379.066,557.77L379.061,557.575L379.163,557.573C379.374,548.977 380.324,540.414 382.003,531.977C383.92,522.339 386.778,512.913 390.539,503.834C394.299,494.757 398.943,486.071 404.401,477.901C409.86,469.732 416.108,462.118 423.055,455.17C430.002,448.223 437.615,441.975 445.784,436.516C453.953,431.058 462.64,426.415 471.717,422.655C480.794,418.895 490.218,416.036 499.855,414.12C509.492,412.203 519.294,411.238 529.12,411.238C532.536,411.238 535.95,411.355 539.357,411.588C542.764,411.821 546.163,412.171 549.546,412.636C552.929,413.101 556.294,413.682 559.637,414.376C562.981,415.071 566.302,415.878 569.594,416.801C572.883,417.722 576.14,418.758 579.357,419.901C582.575,421.045 585.753,422.297 588.885,423.658C592.018,425.018 595.104,426.486 598.136,428.057C601.103,429.594 604.018,431.23 606.875,432.962C563.308,361.986 484.967,314.633 396.862,314.432C266.945,314.693 158.327,417.476 150.911,547.186L150.858,548.112L150.709,549.027L150.589,549.816L150.447,551.34L150.541,551.349L150.536,551.406C150.218,554.71 150.044,558.027 150.014,561.415C150.016,563.271 150.063,565.126 150.155,566.979L150.183,567.384C150.365,569.737 150.584,572.088 150.833,574.434L150.84,574.495C151.233,578.05 151.793,581.585 152.517,585.088Z" style="fill:white;"/>
                </g>
            </g>
        </g>
        <path id="rect15409" d="M421.466,114.97C455.489,125.619 494.396,134.608 545.479,143.01C553.448,144.321 559.847,151.865 559.772,159.94C557.316,426.845 568.284,445.934 577.233,582.875C577.738,590.608 571.898,597.785 564.23,598.904L433.324,618.006C424.648,619.272 417.198,613.203 416.715,604.449C407.885,444.148 407.371,287.848 406.934,125.54C406.911,117.073 413.385,112.441 421.466,114.97Z" style="fill:rgb(233,84,32);fill-rule:nonzero;"/>
        <path id="rect15623" d="M163.946,209.765C229.878,206.854 274.9,201.281 367.424,186.947C374.564,185.84 379.73,190.76 378.964,197.944L378.896,198.583C378.376,203.464 374.021,208.023 369.17,208.768C276.505,222.994 230.883,230.175 165.377,233.243C156.805,233.644 151.603,227.075 151.906,218.525C152.069,213.951 157.493,210.05 163.946,209.765L163.946,209.765Z" style="fill:white;fill-rule:nonzero;"/>
        <path id="rect15623-7" d="M431.6,190.26C494.738,202.658 503.794,204.932 534.014,207.155C541.556,207.709 548.15,214.196 548.734,221.737C549.069,226.064 544.438,229.19 538.393,228.7C506.152,226.084 490.345,224.166 430.914,213.546C425.328,212.548 420.659,207.134 420.483,201.462L420.43,199.748C420.229,193.26 425.231,189.009 431.6,190.26L431.6,190.26Z" style="fill:white;fill-rule:nonzero;"/>
    </g>
</svg>
