<?xml version="1.0" encoding="UTF-8" standalone="no"?>
<svg
   id="Layer_1"
   data-name="Layer 1"
   viewBox="0 0 2150 360.00001"
   version="1.1"
   sodipodi:docname="UbuntuKrTitleKr.svg"
   inkscape:version="1.1.2 (b8e25be833, 2022-02-05)"
   width="2150"
   height="360"
   xmlns:inkscape="http://www.inkscape.org/namespaces/inkscape"
   xmlns:sodipodi="http://sodipodi.sourceforge.net/DTD/sodipodi-0.dtd"
   xmlns:xlink="http://www.w3.org/1999/xlink"
   xmlns="http://www.w3.org/2000/svg"
   xmlns:svg="http://www.w3.org/2000/svg">
  <g
     aria-label="Ubuntu Korea"
     id="text3267"
     style="font-size:233.333px;line-height:1.25;stroke-width:5.11081">
    <g
       aria-label="우분투한국커뮤니티"
       id="text25847"
       style="font-size:226.667px">
      <path
         d="m 371.42422,150.54595 c 33.54672,0 56.89342,13.60002 56.89342,33.32005 0,19.94669 -23.3467,33.77338 -56.89342,33.77338 -33.32005,0 -56.66675,-13.82669 -56.66675,-33.77338 0,-19.72003 23.3467,-33.32005 56.66675,-33.32005 z m 0,77.06678 c 41.48007,0 69.13344,-17.00003 69.13344,-43.74673 0,-26.52004 -27.65337,-43.2934 -69.13344,-43.2934 -41.25339,0 -68.90677,16.77336 -68.90677,43.2934 0,26.7467 27.65338,43.74673 68.90677,43.74673 z m 91.80014,21.08003 H 280.53075 v 10.20002 h 84.77347 v 74.12011 h 12.01335 v -74.12011 h 85.90679 z"
         style="font-weight:300;font-family:'Noto Sans KR';-inkscape-font-specification:'Noto Sans KR Light'"
         id="path42285" />
      <path
         d="m 635.03797,207.2127 h -109.2535 v -30.60005 h 109.2535 z m 12.01335,-69.13344 h -12.01335 v 28.56004 h -109.2535 v -28.56004 h -12.01335 v 79.33345 h 133.2802 z M 525.10447,274.07947 h -11.78668 v 54.17341 h 138.0402 V 318.05286 H 525.10447 Z m -36.26672,-33.77339 v 9.97335 h 86.13346 v 43.2934 h 12.01335 v -43.2934 h 84.77346 v -9.97335 z"
         style="font-weight:300;font-family:'Noto Sans KR';-inkscape-font-specification:'Noto Sans KR Light'"
         id="path42287" />
      <path
         d="M 858.98499,220.58605 H 734.99813 v -29.92004 h 116.73351 v -9.97335 H 734.99813 v -28.56004 h 121.72019 v -9.97335 H 722.98478 v 88.6268 h 136.00021 z m 21.08003,34.45339 H 697.59808 v 10.20001 h 85.22679 v 68.0001 h 12.01335 v -68.0001 h 85.2268 z"
         style="font-weight:300;font-family:'Noto Sans KR';-inkscape-font-specification:'Noto Sans KR Light'"
         id="path42289" />
      <path
         d="m 1026.2652,158.70596 h -53.49339 v -26.52004 h -12.01335 v 26.52004 h -53.72009 v 9.97335 h 119.22683 z m -95.88012,60.29342 c 0,-16.09335 14.73335,-27.20004 36.26672,-27.20004 21.53336,0 36.0401,11.10669 36.0401,27.20004 0,15.64003 -14.50674,26.97338 -36.0401,26.97338 -21.53337,0 -36.26672,-11.33335 -36.26672,-26.97338 z m 83.64012,0 c 0,-22.44003 -18.81336,-36.94672 -47.3734,-36.94672 -28.56005,0 -47.60007,14.50669 -47.60007,36.94672 0,22.21337 19.04002,36.72006 47.60007,36.72006 28.56004,0 47.3734,-14.50669 47.3734,-36.72006 z m -63.46676,51.90675 h -12.01335 v 57.34675 H 1071.372 V 318.05286 H 950.55844 Z m 110.84016,-69.81344 v -68.90677 h -12.0133 v 151.18689 h 12.0133 V 211.2927 h 31.5067 v -10.20001 z"
         style="font-weight:300;font-family:'Noto Sans KR';-inkscape-font-specification:'Noto Sans KR Light'"
         id="path42291" />
      <path
         d="m 1297.5857,225.57273 v -10.20002 h -30.6001 c 5.44,-25.3867 5.44,-44.42673 5.44,-59.61342 V 141.9326 h -133.9602 v 10.20002 h 122.4002 v 3.62667 c 0,15.18669 0,33.77338 -6.12,59.61342 h -140.0802 v 10.20002 h 85.2268 v 41.93339 h -65.7334 v 10.20002 h 128.2935 v 55.53341 h 12.0133 v -65.73343 h -62.5601 v -41.93339 z"
         style="font-weight:300;font-family:'Noto Sans KR';-inkscape-font-specification:'Noto Sans KR Light'"
         id="path42293" />
      <path
         d="m 1334.7591,153.71928 v 10.20002 h 77.7468 c -0.68,13.82669 -3.1733,27.42671 -7.7067,40.12006 l -80.0134,5.89334 2.72,10.88002 73.6667,-7.02668 c -13.1466,29.69338 -37.1733,55.53342 -76.3867,74.57345 l 7.0266,9.97335 c 69.8135,-34.68006 92.4802,-88.6268 92.4802,-144.61356 z m 140.3069,-21.76003 v 82.73346 h -51.6801 v 10.20001 h 51.6801 v 108.12017 h 12.0133 V 131.95925 Z"
         style="font-weight:300;font-family:'Noto Sans KR';-inkscape-font-specification:'Noto Sans KR Light'"
         id="path42295" />
      <path
         d="m 1678.1595,210.38604 h -110.1601 v -57.12009 h 110.1601 z m 11.7867,-66.86677 h -133.7335 v 76.84011 h 133.7335 z m 24.4801,107.44016 H 1531.506 v 10.20002 h 49.6401 v 74.12011 h 12.0133 v -74.12011 h 59.8401 v 74.12011 h 12.0134 v -74.12011 h 49.4134 z"
         style="font-weight:300;font-family:'Noto Sans KR';-inkscape-font-specification:'Noto Sans KR Light'"
         id="path42297" />
      <path
         d="M 1766.3331,269.31946 V 151.67928 h -11.7867 v 128.29353 h 15.64 c 32.64,0 63.4668,-2.72001 98.8268,-9.97335 l -1.8133,-10.42668 c -34.2267,7.25334 -65.5068,9.74668 -97.0135,9.74668 z m 124.8935,-137.36021 v 201.2803 h 12.0133 v -201.2803 z"
         style="font-weight:300;font-family:'Noto Sans KR';-inkscape-font-specification:'Noto Sans KR Light'"
         id="path42299" />
      <path
         d="m 1974.8667,272.71946 v -54.62675 h 76.1602 V 207.8927 h -76.1602 v -46.6934 h 82.9602 v -10.20002 h -94.9735 v 131.9202 h 15.1867 c 39.8934,0 65.7334,-1.36 97.4668,-7.02668 l -1.5867,-10.20001 c -30.6,5.66667 -56.6667,7.02667 -95.8801,7.02667 z m 125.8002,-140.98688 v 201.50697 h 12.0134 V 131.73258 Z"
         style="font-weight:300;font-family:'Noto Sans KR';-inkscape-font-specification:'Noto Sans KR Light'"
         id="path42301" />
    </g>
  </g>
  <sodipodi:namedview
     id="namedview33"
     pagecolor="#ffffff"
     bordercolor="#666666"
     borderopacity="1.0"
     inkscape:pageshadow="2"
     inkscape:pageopacity="0.0"
     inkscape:pagecheckerboard="0"
     showgrid="false"
     inkscape:zoom="0.53461208"
     inkscape:cx="941.80439"
     inkscape:cy="357.2684"
     inkscape:window-width="2880"
     inkscape:window-height="1514"
     inkscape:window-x="3373"
     inkscape:window-y="-11"
     inkscape:window-maximized="1"
     inkscape:current-layer="Layer_1" />
  <defs
     id="defs4">
    <style
       id="style2">.cls-1{fill:#1d1d1b;}.cls-2{fill:#e9500e;}.cls-3{fill:#fff;}</style>
    <linearGradient
       id="linearGradient2882"
       inkscape:swatch="solid">
      <stop
         style="stop-color:#ffffff;stop-opacity:1;"
         offset="0"
         id="stop2880" />
    </linearGradient>
    <linearGradient
       inkscape:collect="always"
       xlink:href="#linearGradient2882"
       id="linearGradient2884"
       x1="123.61589"
       y1="627.40137"
       x2="670.289"
       y2="627.40137"
       gradientUnits="userSpaceOnUse" />
  </defs>
  <rect
     class="cls-2"
     width="233.93118"
     height="360.27347"
     id="rect18"
     x="0"
     y="0" />
  <g
     id="g1045"
     transform="matrix(0.22517108,0,0,0.22517108,56.507438,186.40023)">
    <g
       id="g3233"
       transform="translate(-232.76557,-827.81681)"
       style="fill:#ffffff;fill-opacity:1">
      <circle
         class="cls-2"
         cx="226.58835"
         cy="1056.0741"
         r="109.02696"
         id="circle8"
         style="fill:#ffffff;fill-opacity:1" />
      <circle
         class="cls-2"
         cx="680.64508"
         cy="817.00696"
         r="109.02696"
         id="circle10"
         style="fill:#ffffff;fill-opacity:1" />
      <circle
         class="cls-2"
         cx="656.08185"
         cy="1337.2672"
         r="109.02696"
         id="circle14"
         style="fill:#ffffff;fill-opacity:1" />
    </g>
    <g
       id="g3087"
       transform="translate(-232.76557,-827.81681)"
       style="fill:#ffffff;fill-opacity:1">
      <path
         class="cls-2"
         d="m 472.48179,1336.6657 a 265.525,265.525 0 0 1 -181.07121,-138.0982 156.94811,156.94811 0 0 1 -93.21911,11.4584 354.9352,354.9352 0 0 0 255.53721,214.1645 359.21054,359.21054 0 0 0 77.41948,7.967 156.00315,156.00315 0 0 1 -31.92236,-91.1547 c -8.97973,-0.9975 -17.94861,-2.4547 -26.74401,-4.337 z"
         id="path12-8"
         style="fill:#ffffff;fill-opacity:1" />
      <path
         class="cls-2"
         d="m 807.7978,1297.2209 a 356.70056,356.70056 0 0 0 17.87488,-418.5189 157.14405,157.14405 0 0 1 -61.30976,71.80309 267.293,267.293 0 0 1 -8.73685,265.48841 156.34662,156.34662 0 0 1 52.17173,81.2274 z"
         id="path16-3"
         style="fill:#ffffff;fill-opacity:1" />
      <path
         class="cls-2"
         d="m 218.17628,899.71905 q 4.1505,-0.2277 8.30533,-0.22553 A 157.3464,157.3464 0 0 1 309.164,923.039 265.90648,265.90648 0 0 1 523.2722,808.52964 158.08773,158.08773 0 0 1 556.3482,720.1094 C 419.24532,709.25176 286.02405,780.001 218.17628,899.71905 Z"
         id="path18"
         style="fill:#ffffff;fill-opacity:1" />
    </g>
    <g
       id="g1520"
       transform="matrix(1.8074191,1.1283346,-1.1294007,1.8057128,276.76777,-138.84036)"
       style="fill:#e9500e;fill-opacity:1;stroke:#e9500e;stroke-width:9.38851;stroke-miterlimit:4;stroke-dasharray:none;stroke-opacity:1">
      <path
         id="path1101"
         style="fill:none;fill-opacity:1;stroke:#ffffff;stroke-width:35.4841;stroke-miterlimit:4;stroke-dasharray:none;stroke-opacity:1"
         d="m 396.84961,296.69336 a 264.56693,264.56693 0 0 0 -263.64063,249.46484 132.28346,132.28346 0 0 0 -0.20117,1.27344 132.28346,132.28346 0 0 0 -0.5332,6.7832 264.56693,264.56693 0 0 1 0.41797,-4.58789 132.28346,132.28346 0 0 0 -0.60938,11.63282 132.28346,132.28346 0 0 0 0.72461,13.82812 132.28346,132.28346 0 0 0 2.16602,13.67578 132.28346,132.28346 0 0 0 3.58398,13.37305 132.28346,132.28346 0 0 0 4.96289,12.92773 132.28346,132.28346 0 0 0 6.28516,12.33789 132.28346,132.28346 0 0 0 7.54102,11.61133 132.28346,132.28346 0 0 0 8.71484,10.76172 132.28346,132.28346 0 0 0 9.79101,9.79102 132.28346,132.28346 0 0 0 10.75977,8.71289 132.28346,132.28346 0 0 0 11.61328,7.54101 132.28346,132.28346 0 0 0 12.33594,6.28711 132.28346,132.28346 0 0 0 12.92773,4.96094 132.28346,132.28346 0 0 0 13.375,3.58398 132.28346,132.28346 0 0 0 13.67578,2.16602 132.28346,132.28346 0 0 0 13.82618,0.72461 132.28346,132.28346 0 0 0 13.82812,-0.72461 132.28346,132.28346 0 0 0 13.67578,-2.16602 132.28346,132.28346 0 0 0 13.375,-3.58398 132.28346,132.28346 0 0 0 12.92578,-4.96094 132.28346,132.28346 0 0 0 12.33789,-6.28711 132.28346,132.28346 0 0 0 11.61133,-7.54101 132.28346,132.28346 0 0 0 10.76172,-8.71289 132.28346,132.28346 0 0 0 9.79102,-9.79102 132.28346,132.28346 0 0 0 8.71289,-10.76172 132.28346,132.28346 0 0 0 7.54101,-11.61133 132.28346,132.28346 0 0 0 6.28711,-12.33789 132.28346,132.28346 0 0 0 4.96289,-12.92773 132.28346,132.28346 0 0 0 3.58203,-13.37305 132.28346,132.28346 0 0 0 2.16602,-13.67578 132.28346,132.28346 0 0 0 0.72461,-13.82812 132.28346,132.28346 0 0 1 2.54297,-25.80665 132.28346,132.28346 0 0 1 7.52734,-24.8164 132.28346,132.28346 0 0 1 12.22461,-22.86914 132.28346,132.28346 0 0 1 16.45117,-20.04688 132.28346,132.28346 0 0 1 20.04492,-16.45117 132.28346,132.28346 0 0 1 22.8711,-12.22461 132.28346,132.28346 0 0 1 24.81445,-7.52734 132.28346,132.28346 0 0 1 25.8086,-2.54102 132.28346,132.28346 0 0 1 9.02734,0.3086 132.28346,132.28346 0 0 1 8.98437,0.92382 132.28346,132.28346 0 0 1 8.9004,1.53516 132.28346,132.28346 0 0 1 8.77734,2.13672 132.28346,132.28346 0 0 1 8.60937,2.73437 132.28346,132.28346 0 0 1 8.40235,3.3125 132.28346,132.28346 0 0 1 8.15625,3.87891 132.28346,132.28346 0 0 1 7.875,4.42774 132.28346,132.28346 0 0 1 7.55273,4.95312 132.28346,132.28346 0 0 1 7.19727,5.45898 132.28346,132.28346 0 0 1 6.80664,5.93555 132.28346,132.28346 0 0 1 6.38672,6.38672 132.28346,132.28346 0 0 1 5.9375,6.80859 132.28346,132.28346 0 0 1 5.45703,7.19727 132.28346,132.28346 0 0 1 4.95508,7.55273 132.28346,132.28346 0 0 1 4.42578,7.87305 132.28346,132.28346 0 0 1 3.8789,8.1582 132.28346,132.28346 0 0 1 3.31446,8.40235 132.28346,132.28346 0 0 1 2.73242,8.60937 132.28346,132.28346 0 0 1 2.13867,8.77539 132.28346,132.28346 0 0 1 1.53516,8.90235 132.28346,132.28346 0 0 1 0.14257,1.38867 264.56693,264.56693 0 0 0 -263.47851,-247.94336 z m 263.47851,247.94336 a 264.56693,264.56693 0 0 1 1.08985,16.62305 132.28346,132.28346 0 0 0 -0.30859,-9.02735 132.28346,132.28346 0 0 0 -0.78126,-7.5957 z m -263.54296,12.46484 a 132.28346,132.28346 0 0 1 0.006,0.22461 132.28346,132.28346 0 0 0 -0.006,-0.22461 z m 0.0117,0.40821 a 132.28346,132.28346 0 0 1 0.004,0.14062 132.28346,132.28346 0 0 0 -0.004,-0.14062 z m 0.0312,1.38867 a 132.28346,132.28346 0 0 1 0.006,0.33789 132.28346,132.28346 0 0 0 -0.006,-0.33789 z m 0.0117,0.69531 a 132.28346,132.28346 0 0 1 0.002,0.20508 132.28346,132.28346 0 0 0 -0.002,-0.20508 z m 0.006,0.69336 a 132.28346,132.28346 0 0 1 0.002,0.13867 132.28346,132.28346 0 0 0 -0.002,-0.13867 z"
         transform="scale(0.26458333)" />
      <path
         id="path1285"
         style="fill:url(#linearGradient2884);fill-opacity:1;stroke:#ffffff;stroke-width:35.4841;stroke-miterlimit:4;stroke-dasharray:none;stroke-opacity:1"
         d="m 529.13477,428.97656 a 132.28346,132.28346 0 0 0 -25.8086,2.54102 132.28346,132.28346 0 0 0 -24.81445,7.52734 132.28346,132.28346 0 0 0 -22.8711,12.22461 132.28346,132.28346 0 0 0 -20.04492,16.45117 132.28346,132.28346 0 0 0 -16.45117,20.04688 132.28346,132.28346 0 0 0 -12.22461,22.86914 132.28346,132.28346 0 0 0 -7.52734,24.8164 132.28346,132.28346 0 0 0 -2.54297,25.80665 132.28346,132.28346 0 0 1 -0.72461,13.82812 132.28346,132.28346 0 0 1 -2.16602,13.67578 132.28346,132.28346 0 0 1 -3.58203,13.37305 132.28346,132.28346 0 0 1 -4.96289,12.92773 132.28346,132.28346 0 0 1 -6.28711,12.33789 132.28346,132.28346 0 0 1 -7.54101,11.61133 132.28346,132.28346 0 0 1 -8.71289,10.76172 132.28346,132.28346 0 0 1 -9.79102,9.79102 132.28346,132.28346 0 0 1 -10.76172,8.71289 132.28346,132.28346 0 0 1 -11.61133,7.54101 132.28346,132.28346 0 0 1 -12.33789,6.28711 132.28346,132.28346 0 0 1 -12.92578,4.96094 132.28346,132.28346 0 0 1 -13.375,3.58398 132.28346,132.28346 0 0 1 -13.67578,2.16602 132.28346,132.28346 0 0 1 -13.82812,0.72461 132.28346,132.28346 0 0 1 -13.82618,-0.72461 132.28346,132.28346 0 0 1 -13.67578,-2.16602 132.28346,132.28346 0 0 1 -13.375,-3.58398 132.28346,132.28346 0 0 1 -12.92773,-4.96094 132.28346,132.28346 0 0 1 -12.33594,-6.28711 132.28346,132.28346 0 0 1 -11.61328,-7.54101 132.28346,132.28346 0 0 1 -10.75977,-8.71289 132.28346,132.28346 0 0 1 -9.79101,-9.79102 132.28346,132.28346 0 0 1 -8.71484,-10.76172 132.28346,132.28346 0 0 1 -7.54102,-11.61133 132.28346,132.28346 0 0 1 -6.28516,-12.33789 132.28346,132.28346 0 0 1 -4.96289,-12.92773 132.28346,132.28346 0 0 1 -3.58398,-13.37305 132.28346,132.28346 0 0 1 -1.96485,-12.40234 264.56693,264.56693 0 0 0 263.64063,249.46484 264.56693,264.56693 0 0 0 263.55078,-249.03125 132.28346,132.28346 0 0 0 0.38086,-2.57031 132.28346,132.28346 0 0 0 0.63672,-12.96484 132.28346,132.28346 0 0 0 -0.30859,-9.02735 132.28346,132.28346 0 0 0 -0.92383,-8.98437 132.28346,132.28346 0 0 0 -1.53516,-8.90235 132.28346,132.28346 0 0 0 -2.13867,-8.77539 132.28346,132.28346 0 0 0 -2.73242,-8.60937 132.28346,132.28346 0 0 0 -3.31446,-8.40235 132.28346,132.28346 0 0 0 -3.8789,-8.1582 132.28346,132.28346 0 0 0 -4.42578,-7.87305 132.28346,132.28346 0 0 0 -4.95508,-7.55273 132.28346,132.28346 0 0 0 -5.45703,-7.19727 132.28346,132.28346 0 0 0 -5.9375,-6.80859 132.28346,132.28346 0 0 0 -6.38672,-6.38672 132.28346,132.28346 0 0 0 -6.80664,-5.93555 132.28346,132.28346 0 0 0 -7.19727,-5.45898 132.28346,132.28346 0 0 0 -7.55273,-4.95312 132.28346,132.28346 0 0 0 -7.875,-4.42774 132.28346,132.28346 0 0 0 -8.15625,-3.87891 132.28346,132.28346 0 0 0 -8.40235,-3.3125 132.28346,132.28346 0 0 0 -8.60937,-2.73437 132.28346,132.28346 0 0 0 -8.77734,-2.13672 132.28346,132.28346 0 0 0 -8.9004,-1.53516 132.28346,132.28346 0 0 0 -8.98437,-0.92382 132.28346,132.28346 0 0 0 -9.02734,-0.3086 z M 133.20898,576.36133 a 264.56693,264.56693 0 0 1 -0.73437,-8.05664 132.28346,132.28346 0 0 0 0.5332,6.7832 132.28346,132.28346 0 0 0 0.20117,1.27344 z"
         transform="scale(0.26458333)" />
    </g>
  </g>
</svg>
