<svg width="1400" height="800" viewBox="0 0 1400 800" fill="none" xmlns="http://www.w3.org/2000/svg">
<path d="M707.027 488.121C767.241 488.121 816.054 439.308 816.054 379.094C816.054 318.88 767.241 270.067 707.027 270.067C646.813 270.067 598 318.88 598 379.094C598 439.308 646.813 488.121 707.027 488.121Z" fill="#E9500E"/>
<path d="M1161.08 249.054C1221.3 249.054 1270.11 200.241 1270.11 140.027C1270.11 79.813 1221.3 31 1161.08 31C1100.87 31 1052.06 79.813 1052.06 140.027C1052.06 200.241 1100.87 249.054 1161.08 249.054Z" fill="#E9500E"/>
<path d="M1136.52 769.314C1196.73 769.314 1245.55 720.501 1245.55 660.287C1245.55 600.073 1196.73 551.26 1136.52 551.26C1076.31 551.26 1027.49 600.073 1027.49 660.287C1027.49 720.501 1076.31 769.314 1136.52 769.314Z" fill="#E9500E"/>
<path d="M952.92 659.686C914.386 651.538 878.146 634.919 846.828 611.034C815.511 587.148 789.899 556.595 771.849 521.588C742.674 534.833 710.144 538.831 678.63 533.046C700.427 586.941 735.129 634.658 779.686 672.001C824.243 709.344 877.291 735.17 934.167 747.21C959.609 752.662 985.568 755.334 1011.59 755.177C991.571 728.934 980.395 697.02 979.664 664.023C970.684 663.025 961.716 661.568 952.92 659.686Z" fill="#E9500E"/>
<path d="M1288.24 620.241C1334.97 561.28 1361.87 489.051 1365.08 413.882C1368.29 338.712 1347.65 264.453 1306.11 201.722C1293.52 231.375 1272.11 256.441 1244.8 273.525C1266.61 314.7 1277.28 360.862 1275.75 407.431C1274.21 454.001 1260.53 499.361 1236.06 539.013C1261.59 559.908 1279.85 588.339 1288.24 620.241Z" fill="#E9500E"/>
<path d="M698.614 222.739C701.381 222.587 704.15 222.512 706.92 222.513C736.132 222.535 764.761 230.687 789.602 246.059C813.636 211.344 845.591 182.852 882.823 162.939C920.055 143.027 961.494 132.267 1003.71 131.55C1005.47 99.3953 1017.01 68.5461 1036.79 43.1294C899.683 32.2717 766.462 103.021 698.614 222.739Z" fill="#E9500E"/>
<path d="M1143 469.336C1143.12 469.102 1143.23 468.866 1143.35 468.63C1144.04 467.082 1144.69 465.511 1145.27 463.919C1145.86 462.327 1146.4 460.716 1146.87 459.088C1147.35 457.46 1147.77 455.816 1148.14 454.159C1148.5 452.502 1148.81 450.833 1149.06 449.155C1149.32 447.477 1149.51 445.791 1149.65 444.099C1149.78 442.408 1149.86 440.713 1149.88 439.017C1149.9 437.32 1149.87 435.623 1149.77 433.929C1149.68 432.235 1149.52 430.545 1149.31 428.861C1149.1 427.177 1148.83 425.501 1148.51 423.836C1148.18 422.171 1147.8 420.517 1147.36 418.878C1146.92 417.239 1146.43 415.615 1145.88 414.01C1145.33 412.404 1144.73 410.818 1144.07 409.253C1143.41 407.689 1142.7 406.148 1141.94 404.632C1141.17 403.116 1140.36 401.626 1139.5 400.166C1138.63 398.706 1137.72 397.275 1136.75 395.878C1135.79 394.48 1134.78 393.115 1133.73 391.787C1132.67 390.457 1131.57 389.164 1130.43 387.91C1129.28 386.656 1128.09 385.442 1126.87 384.269C1125.64 383.096 1124.37 381.965 1123.07 380.878C1121.76 379.792 1120.42 378.75 1119.05 377.755C1117.67 376.759 1116.26 375.811 1114.82 374.912C1110.68 372.325 1106.29 370.151 1101.72 368.421C1097.15 366.692 1092.43 365.415 1087.61 364.609C1082.79 363.804 1077.9 363.473 1073.02 363.622C1068.13 363.771 1063.28 364.399 1058.51 365.498C1053.75 366.596 1049.11 368.159 1044.66 370.164C1040.2 372.169 1035.96 374.606 1031.98 377.44C1028 380.275 1024.31 383.494 1020.96 387.049C1017.61 390.605 1014.62 394.48 1012.03 398.62C1010.65 400.826 1009.16 402.959 1007.56 405.01C1005.95 407.06 1004.24 409.025 1002.43 410.897C1000.62 412.769 998.719 414.544 996.724 416.217C994.729 417.889 992.647 419.457 990.488 420.912C988.328 422.367 986.094 423.708 983.794 424.929C981.495 426.151 979.133 427.251 976.719 428.225C974.304 429.2 971.84 430.048 969.336 430.766C966.833 431.483 964.293 432.069 961.728 432.521C959.163 432.972 956.576 433.289 953.978 433.47C951.38 433.652 948.775 433.698 946.172 433.607C943.569 433.516 940.973 433.289 938.393 432.927C935.814 432.565 933.256 432.068 930.73 431.439C928.202 430.809 925.71 430.048 923.262 429.158C920.815 428.268 918.416 427.251 916.075 426.11C913.734 424.969 911.455 423.707 909.246 422.328C907.037 420.949 904.903 419.456 902.851 417.854C900.798 416.252 898.831 414.544 896.958 412.737C895.084 410.929 893.307 409.025 891.633 407.031C889.958 405.038 888.39 402.959 886.933 400.802C885.477 398.645 884.135 396.413 882.913 394.115C881.69 391.818 880.588 389.458 879.612 387.045C878.637 384.633 877.788 382.171 877.07 379.67C876.353 377.169 875.766 374.632 875.314 372.07C874.862 369.507 874.544 366.922 874.362 364.326C874.181 361.731 874.135 359.128 874.226 356.528C874.317 353.927 874.544 351.333 874.907 348.757C875.269 346.18 875.767 343.624 876.397 341.099C877.027 338.574 877.788 336.085 878.679 333.64C879.57 331.195 880.588 328.798 881.73 326.459C882.872 324.121 884.135 321.843 885.515 319.636C886.692 317.79 887.949 315.996 889.283 314.261C888.753 314.945 888.23 315.634 887.712 316.328C888.446 315.281 889.207 314.254 889.994 313.246C890.152 313.063 890.311 312.88 890.471 312.698C912.44 281.667 945.446 260.193 982.738 252.669C1020.03 245.145 1058.79 252.139 1091.09 272.22C1123.18 292.348 1146.4 323.92 1156.04 360.528C1165.68 397.136 1161.02 436.038 1143 469.336ZM1143 469.336C1141.61 472.138 1140.12 474.895 1138.55 477.604C1139.45 476.165 1140.3 474.695 1141.1 473.199C1141.77 471.93 1142.41 470.642 1143 469.336ZM1013.25 396.614C1013.22 396.65 1013.2 396.687 1013.18 396.723M1013.13 396.812C1013.12 396.835 1013.1 396.858 1013.09 396.881M1012.73 397.485C1012.7 397.54 1012.66 397.594 1012.63 397.648M1012.53 397.821C1012.51 397.854 1012.49 397.887 1012.47 397.919M1012.32 398.154C1012.31 398.176 1012.3 398.198 1012.28 398.221" stroke="#E9500E" stroke-width="20"/>
<path d="M1114.82 374.912C1110.68 372.325 1106.29 370.151 1101.72 368.421C1097.15 366.692 1092.43 365.415 1087.61 364.609C1082.79 363.804 1077.9 363.473 1073.02 363.622C1068.13 363.771 1063.28 364.399 1058.51 365.498C1053.75 366.596 1049.11 368.159 1044.66 370.164C1040.2 372.169 1035.96 374.606 1031.98 377.44C1028 380.275 1024.31 383.494 1020.96 387.049C1017.61 390.605 1014.62 394.48 1012.03 398.62C1010.65 400.826 1009.16 402.959 1007.56 405.01C1005.95 407.06 1004.24 409.025 1002.43 410.897C1000.62 412.769 998.719 414.544 996.724 416.217C994.729 417.889 992.647 419.457 990.488 420.912C988.328 422.367 986.094 423.708 983.794 424.929C981.495 426.151 979.133 427.251 976.718 428.225C974.304 429.2 971.84 430.048 969.336 430.766C966.832 431.483 964.293 432.069 961.728 432.521C959.163 432.972 956.576 433.289 953.978 433.47C951.38 433.652 948.775 433.698 946.172 433.607C943.569 433.516 940.972 433.289 938.393 432.927C935.814 432.565 933.256 432.068 930.729 431.439C928.202 430.809 925.71 430.048 923.262 429.158C920.815 428.268 918.416 427.251 916.075 426.11C913.734 424.969 911.455 423.707 909.246 422.328C907.037 420.949 904.903 419.456 902.851 417.854C900.798 416.252 898.831 414.544 896.958 412.736C895.084 410.929 893.307 409.025 891.633 407.031C889.958 405.038 888.39 402.959 886.933 400.802C885.477 398.644 884.135 396.413 882.912 394.115C881.69 391.818 880.588 389.458 879.612 387.045C878.637 384.633 877.788 382.171 877.07 379.67C876.352 377.169 875.766 374.632 875.314 372.07C874.862 369.507 874.544 366.922 874.362 364.326C874.18 361.731 874.135 359.128 874.226 356.528C874.317 353.927 874.544 351.333 874.907 348.757C875.269 346.18 875.767 343.624 876.397 341.099C877.027 338.574 877.788 336.085 878.679 333.64C879.497 331.427 880.421 329.253 881.445 327.128C863.159 360.458 858.309 399.509 867.888 436.294C877.467 473.079 900.75 504.817 932.976 525.019C965.242 545.067 1003.95 552.06 1041.2 544.572C1078.45 537.083 1111.43 515.677 1133.43 484.722C1133.75 484.354 1134.06 483.982 1134.38 483.608C1135.87 481.676 1137.26 479.672 1138.55 477.604C1139.45 476.165 1140.3 474.695 1141.1 473.199C1141.9 471.702 1142.65 470.178 1143.35 468.63C1144.04 467.082 1144.69 465.511 1145.27 463.919C1145.86 462.327 1146.39 460.716 1146.87 459.088C1147.35 457.46 1147.77 455.816 1148.14 454.159C1148.5 452.502 1148.81 450.833 1149.06 449.155C1149.32 447.477 1149.51 445.791 1149.65 444.099C1149.78 442.408 1149.86 440.713 1149.88 439.017C1149.9 437.32 1149.87 435.623 1149.77 433.929C1149.68 432.235 1149.52 430.545 1149.31 428.861C1149.1 427.177 1148.83 425.501 1148.51 423.836C1148.18 422.171 1147.8 420.517 1147.36 418.878C1146.92 417.239 1146.43 415.615 1145.88 414.01C1145.33 412.404 1144.73 410.818 1144.07 409.253C1143.41 407.689 1142.7 406.148 1141.94 404.632C1141.17 403.116 1140.36 401.626 1139.5 400.166C1138.63 398.706 1137.72 397.275 1136.75 395.877C1135.79 394.48 1134.78 393.115 1133.73 391.786C1132.67 390.457 1131.57 389.164 1130.43 387.91C1129.28 386.656 1128.09 385.442 1126.87 384.269C1125.64 383.096 1124.37 381.965 1123.07 380.878C1121.76 379.792 1120.42 378.75 1119.05 377.755C1117.67 376.759 1116.26 375.811 1114.82 374.912ZM881.445 327.128C882.11 325.761 882.795 324.405 883.502 323.059C882.882 324.177 882.291 325.311 881.73 326.459C881.634 326.682 881.539 326.905 881.445 327.128Z" fill="#E9500E"/>
<path d="M881.445 327.128C880.421 329.253 879.497 331.427 878.679 333.64C877.788 336.085 877.027 338.574 876.397 341.099C875.767 343.624 875.269 346.18 874.907 348.757C874.544 351.333 874.317 353.927 874.226 356.528C874.135 359.128 874.18 361.731 874.362 364.326C874.544 366.922 874.862 369.507 875.314 372.07C875.766 374.632 876.352 377.169 877.07 379.67C877.788 382.171 878.637 384.633 879.612 387.045C880.588 389.458 881.69 391.818 882.912 394.115C884.135 396.413 885.477 398.644 886.933 400.802C888.39 402.959 889.958 405.038 891.633 407.031C893.307 409.025 895.084 410.929 896.958 412.736C898.831 414.544 900.798 416.252 902.851 417.854C904.903 419.456 907.037 420.949 909.246 422.328C911.455 423.707 913.734 424.969 916.075 426.11C918.416 427.251 920.815 428.268 923.262 429.158C925.71 430.048 928.202 430.809 930.729 431.439C933.256 432.068 935.814 432.565 938.393 432.927C940.972 433.289 943.569 433.516 946.172 433.607C948.775 433.698 951.38 433.652 953.978 433.47C956.576 433.289 959.163 432.972 961.728 432.521C964.293 432.069 966.832 431.483 969.336 430.766C971.84 430.048 974.304 429.2 976.718 428.225C979.133 427.251 981.495 426.151 983.794 424.929C986.094 423.708 988.328 422.367 990.488 420.912C992.647 419.457 994.729 417.889 996.724 416.217C998.719 414.544 1000.62 412.769 1002.43 410.897C1004.24 409.025 1005.95 407.06 1007.56 405.01C1009.16 402.959 1010.65 400.826 1012.03 398.62C1014.62 394.48 1017.61 390.605 1020.96 387.049C1024.31 383.494 1028 380.275 1031.98 377.44C1035.96 374.606 1040.2 372.169 1044.66 370.164C1049.11 368.159 1053.75 366.596 1058.51 365.498C1063.28 364.399 1068.13 363.771 1073.02 363.622C1077.9 363.473 1082.79 363.804 1087.61 364.609C1092.43 365.415 1097.15 366.692 1101.72 368.421C1106.29 370.151 1110.68 372.325 1114.82 374.912C1116.26 375.811 1117.67 376.759 1119.05 377.755C1120.42 378.75 1121.76 379.792 1123.07 380.878C1124.37 381.965 1125.64 383.096 1126.87 384.269C1128.09 385.442 1129.28 386.656 1130.43 387.91C1131.57 389.164 1132.67 390.457 1133.73 391.786C1134.78 393.115 1135.79 394.48 1136.75 395.877C1137.72 397.275 1138.63 398.706 1139.5 400.166C1140.36 401.626 1141.17 403.116 1141.94 404.632C1142.7 406.148 1143.41 407.689 1144.07 409.253C1144.73 410.818 1145.33 412.404 1145.88 414.01C1146.43 415.615 1146.92 417.239 1147.36 418.878C1147.8 420.517 1148.18 422.171 1148.51 423.836C1148.83 425.501 1149.1 427.177 1149.31 428.861C1149.52 430.545 1149.68 432.235 1149.77 433.929C1149.87 435.623 1149.9 437.32 1149.88 439.017C1149.86 440.713 1149.78 442.408 1149.65 444.099C1149.51 445.791 1149.32 447.477 1149.06 449.155C1148.81 450.833 1148.5 452.502 1148.14 454.159C1147.77 455.816 1147.35 457.46 1146.87 459.088C1146.39 460.716 1145.86 462.327 1145.27 463.919C1144.69 465.511 1144.04 467.082 1143.35 468.63C1142.65 470.178 1141.9 471.702 1141.1 473.199C1140.3 474.695 1139.45 476.165 1138.55 477.604C1137.26 479.672 1135.87 481.676 1134.38 483.608C1134.06 483.982 1133.75 484.354 1133.43 484.722C1111.43 515.677 1078.45 537.083 1041.2 544.572C1003.95 552.06 965.242 545.067 932.976 525.019C900.75 504.817 877.467 473.079 867.888 436.294C858.309 399.509 863.159 360.458 881.445 327.128ZM881.445 327.128C882.11 325.761 882.795 324.405 883.502 323.059C882.882 324.177 882.291 325.311 881.73 326.459C881.634 326.682 881.539 326.905 881.445 327.128Z" stroke="#E9500E" stroke-width="20"/>
<path d="M144.6 769C143.213 764.147 142.52 757.56 142.52 749.24C142.52 740.227 142.52 732.947 142.52 727.4C142.52 682.333 151.88 642.467 170.6 607.8C190.013 573.133 213.933 541.24 242.36 512.12C270.787 482.307 299.213 453.88 327.64 426.84C350.52 404.653 371.32 383.853 390.04 364.44C408.76 345.027 423.667 325.613 434.76 306.2C445.853 286.093 451.4 264.253 451.4 240.68C451.4 202.547 441 175.507 420.2 159.56C399.4 143.613 373.4 135.64 342.2 135.64C315.853 135.64 291.933 140.147 270.44 149.16C249.64 158.173 231.96 168.573 217.4 180.36C203.533 191.453 193.48 200.12 187.24 206.36L126.92 123.16C141.48 109.293 159.507 95.4266 181 81.56C202.493 67 227.107 55.2133 254.84 46.1999C282.573 36.4933 312.733 31.6399 345.32 31.6399C423.667 31.6399 481.56 49.6666 519 85.72C556.44 121.773 575.16 171 575.16 233.4C575.16 268.76 566.493 302.04 549.16 333.24C531.827 364.44 509.64 394.253 482.6 422.68C456.253 450.413 429.213 477.8 401.48 504.84C384.147 521.48 365.773 539.853 346.36 559.96C327.64 579.373 311.347 598.787 297.48 618.2C284.307 636.92 277.027 653.56 275.64 668.12H598.04V769H144.6Z" fill="#E9500E"/>
</svg>
