<?xml version="1.0" encoding="UTF-8" standalone="no"?>
<!DOCTYPE svg PUBLIC "-//W3C//DTD SVG 1.1//EN" "http://www.w3.org/Graphics/SVG/1.1/DTD/svg11.dtd">
<svg width="100%" height="100%" viewBox="0 0 11812 11812" version="1.1" xmlns="http://www.w3.org/2000/svg" xmlns:xlink="http://www.w3.org/1999/xlink" xml:space="preserve" xmlns:serif="http://www.serif.com/" style="fill-rule:evenodd;clip-rule:evenodd;stroke-linejoin:round;stroke-miterlimit:2;">
    <g id="AvhcF3OvwC5frrcJhWN5R" transform="matrix(65.4669,0,0,125.229,4018.42,6646.5)">
        <path d="M-30.895,-5.219C-29.618,-15.783 -30.115,-24.002 -30.537,-28.037C-30.696,-29.554 -29.658,-30.807 -28.133,-30.853C-22.6,-31.021 -9.513,-31.489 4.131,-32.478C17.556,-33.451 31.52,-34.93 37.75,-35.618C39.599,-35.822 41.238,-34.493 41.364,-32.636C41.749,-26.936 42.292,-14.706 41.096,-1.62C39.915,11.311 35.495,25.077 33.1,31.804C32.271,34.132 29.532,35.904 27.064,35.782C19.633,35.413 4.249,34.591 -8.964,33.513C-22.405,32.416 -33.925,31.053 -39.024,30.416C-40.573,30.222 -41.31,28.9 -40.703,27.461C-38.212,21.55 -32.332,6.678 -30.895,-5.219ZM-21.92,-21.759C-23.67,-21.719 -25.141,-21.166 -25.185,-20.517C-25.267,-19.305 -23.856,-18.373 -21.531,-18.43C-3.764,-18.865 8.61,-19.883 33.744,-21.9C35.059,-22.006 36.24,-22.653 36.381,-23.345L36.4,-23.435C36.608,-24.454 35.206,-25.151 33.27,-24.995C8.174,-22.962 -4.037,-22.172 -21.92,-21.759ZM-21.576,9.127C-26.5,9.127 -30.498,11.217 -30.498,13.791C-30.498,16.365 -26.5,18.455 -21.576,18.455C-16.652,18.455 -12.654,16.365 -12.654,13.791C-12.654,11.217 -16.652,9.127 -21.576,9.127ZM15.579,-1.1C10.655,-1.1 6.658,0.99 6.658,3.564C6.658,6.138 10.655,8.228 15.579,8.228C20.503,8.228 24.501,6.138 24.501,3.564C24.501,0.99 20.503,-1.1 15.579,-1.1ZM14.429,18.232C14.513,18.162 14.592,18.091 14.666,18.018L14.667,18.017C14.73,17.955 14.79,17.892 14.846,17.828C18.055,14.696 16.053,10.747 10.287,8.857L10.285,8.856C4.474,6.968 -3.243,7.777 -7.209,10.686L-7.237,10.703C-7.316,10.756 -7.382,10.803 -7.446,10.85C-7.451,10.853 -7.456,10.857 -7.46,10.86L-7.458,10.861C-7.528,10.912 -7.596,10.964 -7.66,11.018L-7.662,11.019C-7.792,11.128 -7.909,11.238 -8.015,11.351L-8.024,11.361C-8.035,11.373 -8.046,11.385 -8.057,11.397C-11.302,14.532 -9.308,18.499 -3.521,20.396L-3.52,20.396C2.285,22.282 9.991,21.476 13.961,18.573L14.021,18.536L14.032,18.53C14.18,18.429 14.309,18.332 14.429,18.232ZM-6.761,11.993C-6.704,11.912 -6.639,11.832 -6.568,11.755L-6.567,11.753C-6.519,11.702 -6.47,11.651 -6.42,11.601C-6.417,11.599 -6.415,11.596 -6.412,11.594C-6.37,11.554 -6.326,11.515 -6.28,11.477C-6.197,11.408 -6.109,11.343 -6.015,11.279L-6.014,11.278L-6.017,11.277C-6.003,11.267 -5.989,11.257 -5.974,11.247L-5.95,11.233L-5.922,11.216L-5.897,11.198C-2.435,8.641 4.328,7.928 9.419,9.582C12.862,10.711 14.769,12.679 14.739,14.686C14.669,14.614 14.595,14.544 14.517,14.474C14.436,14.404 14.352,14.334 14.262,14.266C14.173,14.198 14.079,14.132 13.981,14.068C13.883,14.003 13.781,13.941 13.675,13.88C13.569,13.819 13.458,13.76 13.345,13.703C13.231,13.646 13.113,13.591 12.992,13.539C12.871,13.486 12.747,13.435 12.619,13.387C12.492,13.339 12.361,13.293 12.227,13.249C11.843,13.124 11.435,13.018 11.011,12.934C10.588,12.85 10.149,12.789 9.702,12.749C9.254,12.71 8.801,12.694 8.348,12.702C7.895,12.709 7.444,12.739 7.002,12.793C6.561,12.846 6.13,12.922 5.717,13.019C5.303,13.116 4.909,13.234 4.54,13.372C4.171,13.509 3.828,13.666 3.518,13.838C3.246,13.989 2.999,14.152 2.781,14.325L2.777,14.324L2.772,14.328L2.776,14.329L2.77,14.334L2.767,14.333L2.764,14.335L2.767,14.336C2.757,14.343 2.748,14.351 2.739,14.358L2.738,14.358L2.731,14.364L2.732,14.364L2.726,14.369L2.725,14.369L2.721,14.373L2.721,14.373C2.716,14.377 2.694,14.395 2.689,14.399C2.591,14.481 2.485,14.56 2.372,14.636C2.258,14.712 2.137,14.785 2.009,14.854C1.881,14.923 1.746,14.989 1.604,15.051C1.463,15.113 1.315,15.171 1.162,15.225C1.009,15.279 0.851,15.329 0.688,15.374C0.525,15.419 0.358,15.46 0.187,15.496C0.015,15.532 -0.159,15.564 -0.337,15.59C-0.514,15.617 -0.694,15.638 -0.876,15.655C-1.058,15.672 -1.241,15.684 -1.425,15.69C-1.609,15.697 -1.794,15.699 -1.978,15.695C-2.163,15.692 -2.347,15.684 -2.53,15.67C-2.712,15.657 -2.894,15.638 -3.073,15.615C-3.252,15.592 -3.429,15.564 -3.602,15.531C-3.775,15.498 -3.945,15.46 -4.111,15.418C-4.277,15.375 -4.439,15.329 -4.595,15.278C-4.752,15.227 -4.903,15.171 -5.049,15.112C-5.194,15.053 -5.333,14.989 -5.466,14.922C-5.599,14.855 -5.725,14.785 -5.843,14.711C-5.962,14.637 -6.073,14.56 -6.176,14.48C-6.28,14.4 -6.375,14.318 -6.461,14.233C-6.548,14.147 -6.626,14.06 -6.695,13.971C-6.764,13.881 -6.824,13.79 -6.875,13.698C-6.926,13.605 -6.968,13.511 -7,13.416C-7.032,13.321 -7.054,13.225 -7.067,13.129C-7.08,13.033 -7.083,12.937 -7.077,12.84C-7.07,12.744 -7.054,12.648 -7.029,12.553C-7.003,12.457 -6.968,12.362 -6.923,12.269C-6.879,12.176 -6.825,12.084 -6.762,11.994L-6.761,11.993ZM13.569,21.156C8.645,21.156 4.648,23.246 4.648,25.82C4.648,28.394 8.645,30.484 13.569,30.484C18.493,30.484 22.491,28.394 22.491,25.82C22.491,23.246 18.493,21.156 13.569,21.156ZM-1.455,25.794C-7.836,25.089 -13.283,22.917 -16.272,19.887C-18.659,20.453 -21.321,20.624 -23.9,20.377C-20.281,25.054 -12.431,28.494 -2.989,29.538C-0.907,29.772 1.217,29.886 3.346,29.879C1.708,28.757 0.794,27.391 0.734,25.98C-0.001,25.937 -0.735,25.875 -1.455,25.794ZM25.984,24.107C33.809,18.946 34.402,11.693 27.447,6.203C26.417,7.471 24.665,8.544 22.43,9.275C26.057,12.855 25.785,17.185 21.715,20.632C23.803,21.526 25.298,22.742 25.984,24.107ZM-22.265,7.102C-22.038,7.096 -21.812,7.092 -21.585,7.092C-19.195,7.093 -16.852,7.442 -14.819,8.1C-10.832,5.089 -4.301,3.263 2.702,3.201C2.846,1.826 3.79,0.506 5.408,-0.581C-5.811,-1.046 -16.713,1.981 -22.265,7.102ZM42.912,-43.894L-26.97,-32.017C-27.499,-31.927 -28.083,-32.053 -28.274,-32.299L-28.298,-32.33C-28.489,-32.576 -28.214,-32.848 -27.685,-32.938L36.949,-43.923C33.412,-43.96 29.946,-44.028 25.754,-44.109C24.759,-44.128 23.962,-44.544 23.925,-45.065L23.895,-45.477C23.877,-45.73 24.063,-45.977 24.408,-46.157C24.753,-46.336 25.225,-46.432 25.71,-46.422C37.508,-46.16 43.77,-45.755 61.494,-46.144C79.204,-46.534 85.046,-47.194 96.59,-47.977C97.071,-48.01 97.556,-47.935 97.926,-47.771C98.296,-47.608 98.517,-47.37 98.535,-47.116L98.564,-46.706C98.602,-46.185 97.867,-45.735 96.877,-45.673C85.181,-44.935 79.085,-44.533 61.304,-44.142C56.705,-44.041 52.891,-43.975 49.561,-43.937L82.595,-32.731C82.92,-32.621 83.055,-32.349 82.897,-32.125L82.874,-32.092C82.716,-31.868 82.324,-31.775 81.999,-31.885L46.928,-43.782C46.923,-43.758 46.916,-43.734 46.906,-43.711L44.081,-37.181C43.955,-36.89 43.454,-36.706 42.961,-36.77L42.949,-36.772C42.457,-36.836 42.16,-37.125 42.285,-37.416L45.09,-43.9C44.344,-43.896 43.619,-43.894 42.912,-43.894ZM47.928,-35.2C57.156,-33.69 67.709,-32.416 81.564,-31.224C83.725,-31.039 85.461,-29.969 85.441,-28.824C84.774,9.021 87.749,11.728 90.176,31.145C90.313,32.242 88.73,33.259 86.65,33.418L51.144,36.127C48.791,36.306 46.77,35.446 46.639,34.204C44.244,11.475 44.105,-10.687 43.986,-33.702C43.98,-34.902 45.736,-35.559 47.928,-35.2ZM50.676,-24.525C48.949,-24.702 47.592,-24.099 47.647,-23.179L47.661,-22.936C47.709,-22.132 48.975,-21.364 50.49,-21.223C66.61,-19.717 70.897,-19.445 79.642,-19.074C81.282,-19.005 82.537,-19.448 82.447,-20.062C82.288,-21.131 80.5,-22.051 78.454,-22.129C70.257,-22.444 67.801,-22.767 50.676,-24.525Z" style="fill:white;"/>
    </g>
</svg>
